<svg xmlns="http://www.w3.org/2000/svg" xmlns:xlink="http://www.w3.org/1999/xlink" xml:space="preserve" width="676.03534" height="676.034"><defs><linearGradient id="b"><stop offset=".34410396" style="stop-color:#3613aa;stop-opacity:1"/><stop offset="1" style="stop-color:#b971fb;stop-opacity:1"/></linearGradient><linearGradient id="a"><stop offset="0" style="stop-color:#3613aa;stop-opacity:1"/><stop offset="1" style="stop-color:#b971fb;stop-opacity:1"/></linearGradient><linearGradient xlink:href="#a" id="d" x1="383.53067" x2="616.46948" y1="788.28003" y2="211.73621" gradientTransform="translate(-217.26214 -217.27395)scale(1.43452)" gradientUnits="userSpaceOnUse"/><linearGradient xlink:href="#b" id="c" x1="42.582035" x2="941.28882" y1="760" y2="384.01367" gradientUnits="userSpaceOnUse"/><linearGradient xlink:href="#a" id="e" x1="477.10141" x2="522.0542" y1="648.18909" y2="536.927" gradientUnits="userSpaceOnUse"/></defs><path d="M857.60864 364.73346c-9.07571.39679-18.19986 1.59829-27.20696 3.35207-25.31811 4.92968-49.03486 14.13329-64.35326 20.33284 16.64725-2.98207 41.15045-5.61931 65.10761-2.70927 17.05192 2.07126 31.39292 6.65175 42.33109 13.38966 10.064 6.19942 16.01391 13.54723 19.45897 20.35675 1.39656 2.76045 2.44335 5.51118 3.26707 8.1836 1.30565 4.23595 2.10335 8.88628 2.39319 13.93949.46147 8.04533-.33857 17.73763-3.04395 29.08487-2.61519 10.96896-7.01444 23.48487-13.72168 37.303-12.62536 26.01052-33.48542 56.66476-64.67199 88.03019-.89495.90008-1.79992 1.80288-2.71193 2.70397-26.11646 25.80352-63.11207 55.48879-113.15474 82.07244-47.34625 25.15126-102.87418 45.6471-166.47965 58.19098-56.98844 11.23891-114.95152 15.02986-173.03769 13.1453-20.45258-.66357-40.06677-1.99761-58.73549-3.75049-.00097-.00009-.002.00009-.003 0l-22.61714 48.83867c24.07184 4.91381 50.03346 9.07094 77.387 11.92878 61.70756 6.44708 125.29904 5.77729 188.52571-3.88064 70.77239-10.81055 134.01884-31.80106 188.61071-59.22422 57.76852-29.01889 101.28146-62.90557 132.47028-93.5789 1.08789-1.06991 2.16715-2.1415 3.23519-3.21394 37.11312-37.26615 62.60127-76.30457 77.03638-112.72179 7.66909-19.34776 12.35163-38.26937 13.95277-56.21215 1.66285-18.63436.0118-36.38144-5.21137-52.36338-3.28713-10.05803-7.95346-19.29262-13.9448-27.45664-3.75664-5.11894-8.154-9.89237-13.19576-14.17854-12.60528-10.71617-27.88918-17.28569-44.77211-20.08848-8.81132-1.4628-17.83907-1.87095-26.91479-1.47417zM42.895058 703.33443c12.028725 6.54711 30.019486 17.13553 52.905239 28.97065l7.670963-15.34193c-25.694194-5.06818-46.553413-9.71395-60.576202-13.62872" style="display:inline;opacity:1;fill:url(#c);fill-rule:nonzero;stroke:none;stroke-width:80;stroke-linejoin:bevel;stroke-dasharray:none" transform="translate(-31.541643825 -29.643604)scale(.73532)"/><path d="M500.29749 54.720662c-4.61512-.0143-9.27483.339475-13.94214 1.08371-27.58387 4.398203-51.35704 21.82321-63.8539 46.804058L63.870439 819.87045c-21.40048 42.80092-4.050358 94.84605 38.750601 116.2465 42.80093 21.40049 94.84606 4.05301 116.2465-38.74795l229.54733-495.64596a56.846634 56.846634 0 0 1 103.17026 0l124.2973 268.39089c7.81241-3.69657 15.42582-7.52136 22.83759-11.45864 5.41219-2.87506 10.08348-5.89026 15.19319-8.82905 22.43172-14.37537 43.19208-28.68221 62.73301-43.09341 12.75168-10.25644 25.56541-20.60264 35.22854-30.14998.58448-.57748 1.16719-1.1541 1.7451-1.73181L577.49855 102.60843c-14.80164-29.588096-44.89531-47.788244-77.20106-47.887768M864.40814 676.42761c-31.1581 30.56096-74.53579 64.26913-132.03732 93.15391-2.80577 1.40942-5.63509 2.80055-8.48641 4.17547L781.13246 897.369c21.4004 42.80096 73.4455 60.14844 116.2465 38.74795 42.8009-21.40045 60.1511-73.44558 38.7506-116.2465z" style="baseline-shift:baseline;display:inline;overflow:visible;opacity:1;vector-effect:none;fill:url(#d);fill-opacity:1;fill-rule:nonzero;stroke:#000;stroke-width:1.43453;stroke-linecap:round;stroke-linejoin:round;stroke-opacity:0;stop-color:#000;stop-opacity:1" transform="translate(-29.64302 -29.643604)scale(.73532)"/><path d="M485 577.55804c11.18016-11.24381 14.57779-45 14.57779-45v120s-3.39763-33.75619-14.57779-45-45.42221-15-45.42221-15 34.24205-3.75619 45.42221-15zm29.15558 0c-11.18016-11.24381-14.57779-45-14.57779-45v120s3.39763-33.75619 14.57779-45 45.42221-15 45.42221-15-34.24205-3.75619-45.42221-15z" style="fill:url(#e);fill-rule:nonzero;stroke:#000;stroke-width:0;stroke-linejoin:bevel;stroke-opacity:0" transform="translate(-322.858363427 -381.897327731)scale(1.32287)"/></svg>